<svg width="16" height="12" viewBox="0 0 16 12" fill="none" xmlns="http://www.w3.org/2000/svg">
  <path d="M0 7.80647V9.9226C0 10.8 0.696774 11.4194 1.54839 11.4194H14.4516C15.3032 11.4194 16 10.8 16 9.9226V7.80647H0Z" fill="#1EB53A"/>
  <path d="M14.4516 0.58065H1.54839C0.696774 0.58065 0 1.20001 0 2.07742V4.19355H16V2.07742C16 1.20001 15.3032 0.58065 14.4516 0.58065Z" fill="#0099B5"/>
  <path d="M16 4.19353H0V7.80644H16V4.19353Z" fill="white"/>
  <path d="M16 3.93549H0V4.19355H16V3.93549Z" fill="#CE1126"/>
  <path d="M16 7.80647H0V8.06454H16V7.80647Z" fill="#CE1126"/>
  <path d="M2.42545 1.30322C2.37384 1.30322 2.32222 1.27741 2.27061 1.27741C1.72868 1.27741 1.26416 1.71612 1.26416 2.28387C1.26416 2.85161 1.70287 3.29032 2.27061 3.29032C2.32222 3.29032 2.37384 3.29032 2.42545 3.26451C1.96093 3.18709 1.59964 2.77419 1.59964 2.28387C1.59964 1.76774 1.96093 1.38064 2.42545 1.30322Z" fill="white"/>
  <path d="M2.91585 3.00642L2.86424 2.87739L2.81263 3.00642H2.68359L2.78682 3.10965L2.76101 3.23868L2.86424 3.16126L2.99327 3.23868L2.94166 3.10965L3.07069 3.00642H2.91585Z" fill="white"/>
  <path d="M3.71566 3.00642L3.66404 2.87739L3.61243 3.00642H3.4834L3.58662 3.10965L3.56082 3.23868L3.66404 3.16126L3.79308 3.23868L3.74146 3.10965L3.84469 3.00642H3.71566Z" fill="white"/>
  <path d="M4.51595 3.00642L4.46434 2.87739L4.41272 3.00642H4.28369L4.38692 3.10965L4.3353 3.23868L4.46434 3.16126L4.59337 3.23868L4.54176 3.10965L4.64498 3.00642H4.51595Z" fill="white"/>
  <path d="M5.31575 3.00642L5.26414 2.87739L5.21253 3.00642H5.0835L5.18672 3.10965L5.13511 3.23868L5.26414 3.16126L5.39317 3.23868L5.34156 3.10965L5.44479 3.00642H5.31575Z" fill="white"/>
  <path d="M6.11556 3.00642L6.06395 2.87739L6.01233 3.00642H5.8833L5.98653 3.10965L5.93491 3.23868L6.06395 3.16126L6.16717 3.23868L6.14137 3.10965L6.24459 3.00642H6.11556Z" fill="white"/>
  <path d="M3.66404 2.07738L3.63824 2.20642H3.4834L3.61243 2.30964L3.56082 2.43867L3.66404 2.36125L3.79308 2.43867L3.74146 2.30964L3.8705 2.20642H3.71566L3.66404 2.07738Z" fill="white"/>
  <path d="M4.46434 2.07738L4.43853 2.20642H4.28369L4.41272 2.30964L4.36111 2.43867L4.46434 2.36125L4.59337 2.43867L4.54176 2.30964L4.67079 2.20642H4.51595L4.46434 2.07738Z" fill="white"/>
  <path d="M5.26414 2.07738L5.23833 2.20642H5.0835L5.21253 2.30964L5.16092 2.43867L5.26414 2.36125L5.39317 2.43867L5.34156 2.30964L5.47059 2.20642H5.31575L5.26414 2.07738Z" fill="white"/>
  <path d="M6.11556 2.20642L6.06395 2.07738L6.03814 2.20642H5.8833L5.98653 2.30964L5.96072 2.43867L6.06395 2.36125L6.19298 2.43867L6.14137 2.30964L6.2704 2.20642H6.11556Z" fill="white"/>
  <path d="M4.38684 1.50967L4.33523 1.6387L4.46426 1.56128L4.56749 1.6387L4.54168 1.50967L4.64491 1.40644H4.51588L4.46426 1.27741L4.41265 1.40644H4.25781L4.38684 1.50967Z" fill="white"/>
  <path d="M5.18665 1.50967L5.13504 1.6387L5.26407 1.56128L5.36729 1.6387L5.34149 1.50967L5.44471 1.40644H5.31568L5.26407 1.27741L5.21246 1.40644H5.05762L5.18665 1.50967Z" fill="white"/>
  <path d="M5.98694 1.50967L5.93533 1.6387L6.06436 1.56128L6.16759 1.6387L6.14178 1.50967L6.24501 1.40644H6.09017L6.06436 1.27741L6.01275 1.40644H5.85791L5.98694 1.50967Z" fill="white"/>
</svg>
