<svg width="21" height="21" viewBox="0 0 21 21" fill="none" xmlns="http://www.w3.org/2000/svg">
  <rect x="3.2099" y="17.7939" width="13.7143" height="0.9375" rx="0.46875" fill="#737373"/>
  <rect x="3.2099" y="15.2939" width="13.7143" height="0.937501" rx="0.46875" fill="#737373"/>
  <path fill-rule="evenodd" clip-rule="evenodd" d="M0.0930176 12.8201C0.0930176 7.28288 4.57017 2.79407 10.093 2.79407C15.6159 2.79407 20.093 7.28288 20.093 12.8201H0.0930176ZM14.093 12.82H15.593C15.593 9.77456 13.1306 7.30572 10.093 7.30572C7.05547 7.30572 4.59303 9.77456 4.59303 12.82H6.09303C6.09303 10.6051 7.88389 8.80962 10.093 8.80962C12.3022 8.80962 14.093 10.6051 14.093 12.82ZM17.093 12.8201H18.593C18.593 8.11341 14.7874 4.29792 10.093 4.29792C5.39859 4.29792 1.59301 8.11341 1.59301 12.8201H3.09301C3.09301 8.944 6.22702 5.80183 10.093 5.80183C13.959 5.80183 17.093 8.944 17.093 12.8201ZM12.5969 12.82C12.5969 11.4357 11.4737 10.3135 10.093 10.3135C8.71231 10.3135 7.59303 11.4357 7.59303 12.82H12.5969Z" fill="url(#paint0_linear)"/>
  <defs>
    <linearGradient id="paint0_linear" x1="0.550829" y1="3.09086" x2="0.550829" y2="12.6579" gradientUnits="userSpaceOnUse">
      <stop stop-color="#A38ECA"/>
      <stop offset="1" stop-color="#5E7B99"/>
    </linearGradient>
  </defs>
</svg>
